<!-- Generator: Adobe Illustrator 23.1.1, SVG Export Plug-In  -->
<svg version="1.1" xmlns="http://www.w3.org/2000/svg" xmlns:xlink="http://www.w3.org/1999/xlink" x="0px" y="0px"
	 width="145.43px" height="73.17px" viewBox="0 0 145.43 73.17" style="enable-background:new 0 0 145.43 73.17;"
	 xml:space="preserve">
<style type="text/css">
	.st0{clip-path:url(#SVGID_4_);}
	.st1{clip-path:url(#SVGID_5_);fill:#333333;}
	.st2{clip-path:url(#SVGID_8_);}
	.st3{clip-path:url(#SVGID_10_);fill:#333333;}
</style>
<defs>
</defs>
<g id="图稿_1_2_">
	<g>
		<defs>
			<rect id="SVGID_1_" width="145.43" height="73.17"/>
		</defs>
		<clipPath id="SVGID_4_">
			<use xlink:href="#SVGID_1_"  style="overflow:visible;"/>
		</clipPath>
		<g class="st0">
			<defs>
				<rect id="SVGID_3_" width="145.43" height="73.17"/>
			</defs>
			<clipPath id="SVGID_5_">
				<use xlink:href="#SVGID_3_"  style="overflow:visible;"/>
			</clipPath>
			<path class="st1" d="M108.05,33.74c0,0-0.61,1.63-2.21,4.64c-0.36,0.65-1.68,3.01-4.04,3.16c-1.54,0.23-2.4-1.41-2.4-1.41
				c-1.31-1.96-0.58-6.04,0.69-8.89c0-0.01,0.09-0.2,0.13-0.29c0,0,0,0,0-0.01c1.28-2.78,2.86-5.03,4.1-6.48
				c0.69-0.7,1.46-1.5,2.57-1.45c0.78,0.02,1.4,0.44,1.73,0.71c-0.26,0.34-0.6,0.8-0.99,1.36c-0.27,0.4-0.52,0.79-0.73,1.14
				c-0.48,0.79-0.81,1.42-0.96,1.7c-2.21,4.35-2.62,6.46-2.7,7.19c-0.06,0.85,0.11,1.62,0.53,1.79c0.42,0.18,1-0.45,1.22-0.68
				l6.51-10.94c0.03-0.05,0.06-0.09,0.08-0.13c0.61-0.91,1.3-1.22,2.38-1.11c1.19,0.12,1.88,1.29,1.96,1.42
				c0.16,0.26,0.27,0.53,0.34,0.8c0.45-0.72,1.38-1.97,2.8-1.97c0.83,0,1.76,0.43,2.3,1.22c0.99,1.43,0.4,3.41-0.08,4.58
				c-0.99,2.65-3.1,5.34-3.83,7.66c-0.08,0.25-0.21,0.72,0.01,1.04c0.31,0.46,1.14,0.35,1.31,0.33c1.6-0.2,2.68-2.09,4.07-4.51
				c0.36-0.63,0.71-1.31,0.71-1.31c0.1-0.2,0.18-0.36,0.24-0.47c0.11,0.02,0.23,0.04,0.35,0.07c0.14,0.03,0.28,0.07,0.4,0.1
				c-0.34,0.8-2.58,5.94-4.71,7.43c-0.43,0.3-0.87,0.47-0.93,0.49c-0.21,0.08-2.23,0.8-3.7-0.36c-0.2-0.16-0.82-0.69-1.09-1.59
				c-0.91-3.02,2.83-8.18,3.43-10.29c0.07-0.24,0.25-0.87-0.02-1.12c-0.12-0.11-0.28-0.1-0.34-0.1c-0.43,0.05-0.59,0.44-0.98,1.1
				c-0.06,0.11-0.13,0.25-0.21,0.4c0,0-0.02,0.04-0.04,0.07c-0.29,0.56-2.28,4.58-3.33,7.23c0,0-0.65,1.62-0.75,3.2
				c-0.02,0.3-0.04,0.59,0.02,0.96c0.1,0.66,0.34,0.91,0.22,1.05c-0.18,0.23-1.01-0.16-1.5-0.48c-0.39-0.26-0.67-0.54-0.85-0.73
				c-0.17-0.18-0.41-0.48-0.64-0.89c-0.57-0.99-0.67-1.93-0.71-2.35c-0.3-3.07,1.87-6.64,2.75-8.3c0.51-0.95,0.55-1.06,0.97-1.89
				c0,0,0.43-0.8,0.17-1.08c-0.04-0.04-0.09-0.04-0.09-0.04s-0.07-0.01-0.15,0.08L108.05,33.74z"/>
			<path class="st1" d="M24.72,26.32c-0.22,0.14-2.04,1.09-2.34,1.22c-1.31,0.58-4.64,1.95-5.32,2.23
				c-3.03,1.26-5.65,2.67-9.84,4.91l0,0C6.67,35,6.01,35.42,5.34,35.99c-0.54,0.46-0.98,0.92-1.33,1.33c0.48-0.2,1.1-0.39,1.84-0.51
				c1.15-0.18,2.13-0.09,2.8,0.04c0.7-0.06,5.52,1.19,7.31,1.24c2.44,0.06,4.19,0.01,5.67-1.13c2.86-2.18,2.37-6.79,2.29-7.43
				c0.22,0.04,3.32,0.61,4.42,3.34c0.82,2.02-0.02,3.89-0.26,4.46c-0.84,1.94-2.66,3.22-4.77,4.04c-3.22,1.25-6.24,0.59-8.16,0.18
				c-7.98-3.01-9.83-1.98-10.68-1.25c-1.28,1.64-2.3,1.75-3.18,1.22C0.31,41.02,0.1,40,0.05,39.79c-0.67-3.15,5.49-6.83,5.95-7.1
				c5.1-2.88,10.13-4.86,13.99-8.78c1.35-1.37,4.87-4.92,4.12-8.84c-0.31-1.6-1.11-2.56-1.11-2.56s-1.19-1.47-3.39-1.82
				c-6.35-1.65-11.22,3.6-9.42,7.27c0.45,0.85,1.52,1.46,3.44,1.56c0.92-0.03,1.63-0.21,2.12-0.52c0.49-0.31,1.15,0.13,0.81,0.99
				c-0.33,0.86-0.79,1.61-1.38,2.27c-0.6,0.65-1.31,1.18-2.16,1.56c-0.84,0.39-1.75,0.6-2.71,0.64C8.67,24.5,7.3,24,6.18,22.94
				c-1.12-1.06-1.73-2.47-1.83-4.24c-0.09-1.47,0.16-2.89,0.74-4.24c0.57-1.35,1.43-2.56,2.57-3.64c0.67-0.64,1.22-1.07,1.36-1.17
				c1.33-0.98,3.37-1.72,3.74-1.85c0.04-0.02,0.07-0.03,0.11-0.05c0.26-0.13,1.61-0.74,4.8-0.87c1.59-0.09,5.42-0.15,9.24,2.24
				c0.84,0.52,1.3,0.96,1.51,1.17c1.95,1.92,2.31,4.32,2.39,4.95C31.1,20.52,28.61,24.12,24.72,26.32"/>
			<path class="st1" d="M44.4,28.59c0.43-0.64,1.12-1.62,2.13-2.76c0.41-0.46,0.77-0.84,1.03-1.11c-0.32-0.29-0.92-0.75-1.73-0.84
				c-1.28-0.14-2.32,0.73-2.79,1.2c-0.2,0.21-0.44,0.44-0.69,0.71c-0.25-0.62-1.79-3.85-5.89-1.85c-1.71,0.83-3.36,2.5-4.73,4.49
				c-0.26,0.37-0.52,0.78-0.78,1.23c-0.05,0.08-0.1,0.16-0.15,0.24c-0.15,0.29-0.33,0.62-0.53,0.97c-0.01,0.02-0.02,0.04-0.03,0.06
				c-0.19,0.36-0.37,0.75-0.55,1.15c-0.64,1.42-1.06,2.74-1.34,3.89c0.02-0.02,0.03-0.04,0.04-0.06c-0.05,0.14-0.1,0.3-0.14,0.49
				c0,0.01-0.01,0.02-0.01,0.04c-0.02,0.07-0.03,0.14-0.05,0.21c-0.05,0.25-0.09,0.52-0.11,0.82c-0.03,0.68-0.13,2.52,1.06,3.55
				c1.65,1.41,4.45,0.12,4.8-0.04c0.04-0.02,0.16-0.08,0.37-0.21c0.62-0.38,1.29-0.88,1.97-1.57c0.02,0.12,0.06,0.25,0.1,0.39
				c0.12,0.34,0.28,0.6,0.42,0.78c0.24,0.29,0.97,1.11,2.07,1.19c0.64,0.05,1.16-0.17,1.58-0.39c1.8-0.95,3.1-2.75,4.38-5.02
				c0.68-1.2,1.52-2.85,2.35-4.9c-0.06-0.08-0.12-0.17-0.18-0.25c-0.1,0.15-0.24,0.38-0.42,0.66c-1.83,2.9-3.47,5.46-4.75,5.63
				c-0.09,0.01-0.31,0.04-0.49-0.09c-0.1-0.07-0.37-0.33-0.29-1.47C41.21,33.13,43.99,29.2,44.4,28.59 M36.21,36.07
				c-0.53,0.52-1.22,1.13-1.61,1.19c-0.34,0.05-0.78,0.03-1.09-0.24c-0.02-0.02-0.05-0.05-0.07-0.07c-0.34-0.38-0.36-1.01-0.25-1.73
				c0.18-1.2,0.63-2.37,1.18-3.39c1-1.9,2.31-3.34,2.7-3.77c1.23-1.34,1.97-1.81,2.75-1.7c0.75,0.02,1.31,0.77,1.31,0.77
				C39.68,28.89,36.76,32.7,36.21,36.07"/>
			<path class="st1" d="M66.25,28.7c0.07,0.07,0.14,0.13,0.2,0.2c0.28,0.28,0.39,0.69,0.28,1.07c-0.9,3.12-2.63,8.54-4.92,10.4
				c-1.14,0.98-3.26,1.36-4.8,0.27c-0.21-0.15-0.86-0.66-1.15-1.52c-0.97-2.92,2.86-8.09,3.46-10.18c0.07-0.23,0.25-0.86-0.03-1.09
				c-0.12-0.1-0.29-0.09-0.35-0.09c-0.52,0.04-0.81,0.63-1.09,1.17c0,0,0,0,0,0.01c-0.19,0.44-1.4,2.49-3.48,7.3
				c0,0-0.65,1.61-0.74,3.15c-0.01,0.22-0.02,0.43,0,0.68c0.01,0.14,0.03,0.24,0.03,0.27c0.1,0.56,0.29,0.69,0.23,0.81
				c-0.11,0.21-1.17,0.14-2.03-0.47c-0.4-0.32-0.52-0.42-0.78-0.79c-0.34-0.57-0.78-2.05-0.25-4.02c0.01-0.03,0.01-0.04,0.02-0.07
				c0.29-1.04,0.78-2.43,2.8-6.38c0.66-1.3,0.91-1.74,0.81-1.81c-0.22-0.16-2.01,1.65-3.37,3.8c-0.74,1.17-1.14,2.1-1.57,3.09
				c-0.92,2.14-1.36,3.38-1.29,5.01c0,0.09,0.01,0.32,0.03,0.56c0.03,0.28,0.05,0.43,0.11,0.59c0.03,0.09,0.06,0.16,0.09,0.21
				c0.09,0.18,0.18,0.33,0.25,0.42c-0.33,0.31-0.61,0.38-0.81,0.39c-1.31,0.05-2.82-2.6-2.76-4.88c0.03-0.94,0.31-1.91,0.41-2.21
				c0.26-0.79,0.52-1.38,0.74-1.82c1.56-3.12,2.65-4.01,3-6.16c0.07-0.4,0.09-0.73,0.09-0.91c0-0.22-0.04-0.58-0.23-0.97
				c-0.04-0.09-0.19-0.39-0.49-0.68c-0.1-0.1-0.2-0.18-0.27-0.23c0.08-0.1,0.67-0.82,1.62-0.82c0.85,0,1.39,0.59,1.58,0.8
				c1.06,1.15,0.64,2.85,0.59,3.04c0.28-0.36,0.55-0.65,0.77-0.87c0.84-0.82,1.6-1.51,2.57-1.45c1.24,0.08,1.97,1.21,2.05,1.33
				c0.17,0.25,0.29,0.51,0.37,0.78c0.46-0.72,1.41-1.97,2.89-2.01c0.86-0.02,1.83,0.37,2.4,1.12c1.04,1.37,0.33,3.42-0.03,4.48
				c-1.34,2.82-3.17,5.32-3.9,7.61c-0.11,0.34-0.2,0.77,0.02,1.02c0.3,0.35,1.03,0.3,1.31,0.1c1.37-0.77,3.3-4.01,5.29-10.14
				C65.96,28.64,66.15,28.6,66.25,28.7"/>
			<path class="st1" d="M74.53,1.2c0.4-0.67,0.3-1.27-0.71-1.19c-1.24,0.04-4.99-0.05-5.44,3.59c-0.3,1.75-0.38,4.02,0.31,6.52
				c1.36,4.97,4.82,7.61,5.78,8.31c4.06,2.99,9.94,4.25,14.84,2.13c1.27-0.55,4.21-1.82,5.38-4.93c0.06-0.16,1.48-4.11-0.85-6.96
				c-1.47-1.8-3.62-2.19-4.45-2.33c-6.76-1.12-13.09,6.07-13.7,6.77c-6.2,7.22-9.14,20.35-3.07,25.98c2.9,2.69,7.78,3.48,11.51,2.31
				c2.82-0.92,5.78-3.44,7.23-5.55c0.02-0.03,0.04-0.07,0.06-0.1c2.71-5.38,1.22-3.56,1-3.34c-3,3.44-4.89,4.18-5.4,4.37
				c-0.81,0.29-1.83,0.58-3.24,0.54c-0.49-0.02-3.76-0.14-5.7-2.49c-0.96-1.16-1.61-2.81-1.5-5.86c0.29-8.18,5.73-18.24,11.88-18.82
				c0.58-0.05,2.77-0.26,3.71,1.02c0.87,1.19,0.19,3,0.01,3.49c-0.96,2.55-3.43,3.69-3.86,3.89c-4.68,2.17-11.51-0.53-14.41-5.19
				c-0.93-1.5-1.25-2.87-1.36-3.42C71.81,6.21,73.38,2.98,74.53,1.2"/>
			<path class="st1" d="M94.69,26.75c-4.15,9.22-6.01,12.36-4.69,13.87c0.77,0.88,2.26,0.77,2.85,0.73
				c2.32-0.17,6.62-6.33,6.71-6.55c-0.11-0.33-0.22-0.66-0.33-1c-0.18,0.29-0.37,0.58-0.57,0.87c-1.3,1.91-2.73,3.51-4.16,4.84
				c-0.04,0-0.07,0-0.1-0.02c-0.53-0.3,0.84-4.06,4.13-11.29c6.61-14.74,11.09-22.31,11.54-23.39c0.03-0.08,0.08-0.26,0.03-0.45
				c-0.27-1.25-3.28-0.9-4.55-0.26c-0.98,0.49-3.4,6.42-7.83,15.98C96.52,22.67,95.76,24.36,94.69,26.75"/>
			<path class="st1" d="M110.01,13.8c-0.37-0.02-0.57,0.36-0.37,0.67c0.07,0.11,0.12,0.22,0.12,0.34c0.03,0.38-0.39,0.61-0.72,0.84
				c-0.39,0.27-2.21,1.53-2.21,2.71c0.03,0.82,0.41,1.69,2.85,2.38c0.22,0.07,0.44,0.12,0.44,0.12c0.11,0.03,0.16-0.16,0.11-0.32
				c-0.18-0.61,0.31-1.37,0.31-1.37c0.79-1.22,1.99-1.22,2.32-2.18c0.27-0.78-0.19-1.74-0.79-2.32
				C111.52,14.14,110.78,13.83,110.01,13.8"/>
			<path class="st1" d="M131.71,15.26c-0.15-0.08-0.34,0.01-0.37,0.18c-0.03,0.21-0.09,0.43-0.18,0.68
				c-0.05,0.13-0.16,0.39-0.37,0.7c-0.49,0.73-0.66,0.62-1.16,1.17c-0.61,0.66-0.39,1.77,0.26,2.38c0.77,0.72,2.03,0.6,2.8-0.23
				c0.84-0.93,1.01-2.84,0.16-3.91C132.51,15.75,132.06,15.44,131.71,15.26"/>
			<path class="st1" d="M127.32,23.87c0,0,0.47,0.95,0.12,1.56c-0.62,1.21-8.08,12.77-4.09,15.33c0.41,0.23,1.97,1.02,3.49,0.41
				c0.89-0.36,1.36-1.04,2.13-2.17c0.51-0.75,1.2-1.94,1.73-3.57l0.2-2.69c-0.15,0.39-0.38,0.94-0.65,1.59
				c-1.91,4.56-2.72,5.39-3.58,5.51c-0.34,0.07-0.58-0.17-0.72-0.31c-0.41-0.63-0.24-1.38-0.18-1.58c0.54-2.04,3.55-6.51,5.77-10.58
				c0.44-0.76,1.02-1.89,0.25-3.02c-0.94-1.44-2.63-1.16-2.87-1.13C128.11,23.3,127.56,23.68,127.32,23.87"/>
			<path class="st1" d="M140.51,30.37c0.61-0.47,0.7-1.82,0.07-2.46c-0.07-0.07-0.37-0.36-0.95-0.41c-1.7-0.16-3.44,1.92-4.26,3.56
				c-0.47,0.94-1.39,2.81-0.55,4.52c0.08,0.17,0.7,1.39,1.95,1.75c0.21,0.06,0.41,0.07,0.41,0.07c0.62,0.05,1-0.15,1.57-0.31
				c0,0,0.56-0.16,1.25-0.19c0.86-0.05,1.51,0.16,2.18,0.38c0.49,0.16,1.14,0.42,1.87,0.86c0.1,0.06,0.06,0.25-0.08,0.29
				c-0.53,0.13-1.19,0.34-1.91,0.72c-0.83,0.44-1.33,0.89-1.57,1.08c-1.63,1.31-5.38,1.98-7.79,0.16c-1.58-1.19-2-3.02-2.16-3.73
				c-0.4-1.76-0.03-3.18,0.3-4.39c0.28-1.04,0.87-2.72,2.22-4.49c1.8-2.69,4.66-4.04,7.1-3.41c0.57,0.09,2.79,0.91,3.47,3.12
				c0.17,0.54,0.33,2.05-0.22,3.03c-0.66,1.16-1.95,1.59-2.51,1.59c-0.74,0.08-1.16-0.28-1.16-0.28c-0.31-0.27-0.53-0.76-0.37-1.05
				C139.56,30.45,140.08,30.7,140.51,30.37"/>
		</g>
		<g class="st0">
			
				<text transform="matrix(1 0 0 1 46.7075 57.2305)" style="fill:#333333; font-family:'NewYorkMedium-MediumItalic'; font-size:10.8052px;">SINCE 2019</text>
		</g>
		<g class="st0">
			<defs>
				<rect id="SVGID_2_" width="145.43" height="73.17"/>
			</defs>
			<clipPath id="SVGID_6_">
				<use xlink:href="#SVGID_2_"  style="overflow:visible;"/>
			</clipPath>
			<g style="clip-path:url(#SVGID_6_);">
				
					<text transform="matrix(1 0 0 1 3.6895 70.3691)" style="fill:#333333; font-family:'NewYorkMedium-MediumItalic'; font-size:10.8052px;">MY COLLEDE LIFE RECORD </text>
			</g>
		</g>
	</g>
</g>
</svg>
