<!-- Generator: Adobe Illustrator 23.1.1, SVG Export Plug-In  -->
<svg version="1.1" xmlns="http://www.w3.org/2000/svg" xmlns:xlink="http://www.w3.org/1999/xlink" x="0px" y="0px" width="52.27px"
	 height="52.27px" viewBox="0 0 52.27 52.27" style="enable-background:new 0 0 52.27 52.27;" xml:space="preserve">
<style type="text/css">
	.st0{fill:#FFFFFF;}
	.st1{fill:#83B6FF;}
</style>
<defs>
</defs>
<g>
	<path class="st0" d="M26.13,52.27C11.7,52.27,0,40.57,0,26.13S11.7,0,26.13,0s26.13,11.7,26.13,26.13S40.57,52.27,26.13,52.27z"/>
	<path class="st1" d="M26.13,49C38.76,49,49,38.76,49,26.13S38.76,3.27,26.13,3.27S3.27,13.5,3.27,26.13S13.5,49,26.13,49z"/>
	<path class="st0" d="M33.7,28.07c0.01-2.04-0.65-4.03-1.87-5.67l2.95-2.95v2.3c0,0.76,0.62,1.39,1.38,1.39c0,0,0.01,0,0.01,0
		c0.77,0,1.39-0.62,1.39-1.39v-5.54c0.03-0.41-0.11-0.81-0.41-1.1c-0.29-0.29-0.69-0.44-1.1-0.41h-5.54c-0.77,0-1.39,0.62-1.39,1.39
		c0,0.77,0.62,1.39,1.39,1.39h2.3l-2.95,2.95c-1.64-1.22-3.62-1.88-5.67-1.87c-2.52-0.01-4.94,1-6.72,2.78
		c-1.79,1.78-2.79,4.2-2.78,6.72c-0.01,2.52,1,4.94,2.78,6.72c1.78,1.79,4.2,2.79,6.72,2.78c2.52,0.01,4.94-1,6.72-2.78
		C32.71,33.01,33.71,30.59,33.7,28.07z M24.2,34.79c-1.8,0-3.48-0.7-4.75-1.97c-1.26-1.26-1.97-2.97-1.97-4.75
		c0-1.8,0.7-3.48,1.97-4.75c1.26-1.27,2.97-1.97,4.75-1.97c1.8,0,3.48,0.7,4.75,1.97c1.27,1.26,1.97,2.97,1.97,4.75
		c0,1.8-0.7,3.48-1.97,4.75C27.7,34.08,25.99,34.79,24.2,34.79z"/>
</g>
</svg>
